<?xml version="1.0" encoding="UTF-8"?>
<svg id="Layer_2" data-name="Layer 2" xmlns="http://www.w3.org/2000/svg" xmlns:xlink="http://www.w3.org/1999/xlink" viewBox="0 0 623.08 476.62">
  <defs>
    <style>
      .cls-1, .cls-2, .cls-3 {
        fill: #05b6d0;
      }

      .cls-2 {
        font-size: 73.45px;
      }

      .cls-2, .cls-3 {
        font-family: SamsungSans-Light, 'Samsung Sans';
        font-weight: 300;
      }

      .cls-3 {
        font-size: 29.97px;
      }

      .cls-4 {
        fill: url(#linear-gradient);
      }
    </style>
    <linearGradient id="linear-gradient" x1="90.27" y1="112.97" x2="292" y2="112.97" gradientUnits="userSpaceOnUse">
      <stop offset="0" stop-color="#7dcfe1"/>
      <stop offset="1" stop-color="#00b5d0"/>
    </linearGradient>
  </defs>
  <g id="Layer_1-2" data-name="Layer 1">
    <path class="cls-1" d="M49.44,460.16h-4.49l-12.51-37.47-12.1,37.47h-4.49l-12.92-48.08h4.42l10.81,42.43,12.04-37.54h4.28l12.51,37.54,10.95-42.43h4.28l-12.78,48.08Z"/>
    <path class="cls-1" d="M94.25,460.16c-.36-1.31-.58-2.7-.65-4.15-.07-1.45-.1-2.83-.1-4.15v-13.46c0-1.4-.12-2.73-.37-3.98-.25-1.25-.67-2.35-1.26-3.3-.59-.95-1.37-1.7-2.35-2.24-.98-.54-2.19-.82-3.64-.82-2,0-4.05.49-6.15,1.46-2.11.98-4.02,2.17-5.75,3.57v27.06h-3.94v-50.86l3.94-.34v20.67c1.86-1.4,3.86-2.61,6.02-3.6,2.15-1,4.39-1.5,6.7-1.5,1.9,0,3.52.35,4.86,1.05,1.34.7,2.45,1.66,3.33,2.86.88,1.2,1.53,2.63,1.94,4.28.41,1.66.61,3.43.61,5.34v13.8c0,1.32.03,2.7.1,4.15.07,1.45.28,2.83.65,4.15h-3.94Z"/>
    <path class="cls-1" d="M128.86,460.16c-.18-.68-.32-1.43-.41-2.24-.09-.82-.16-1.59-.2-2.31-.68.59-1.49,1.19-2.41,1.8-.93.61-1.93,1.16-2.99,1.63-1.07.48-2.19.86-3.37,1.16-1.18.29-2.36.44-3.54.44-1.45,0-2.8-.24-4.05-.71-1.25-.48-2.32-1.14-3.23-2.01-.91-.86-1.62-1.91-2.14-3.16-.52-1.25-.78-2.66-.78-4.25,0-2,.41-3.68,1.22-5.07s1.89-2.5,3.23-3.37c1.34-.86,2.88-1.48,4.62-1.87,1.74-.38,3.57-.58,5.47-.58,1.63,0,3.06.08,4.28.24,1.22.16,2.42.35,3.6.58v-2.24c0-3.08-.77-5.55-2.31-7.41-1.54-1.86-3.94-2.79-7.21-2.79-1.68,0-3.36.26-5.03.78-1.68.52-3.26,1.21-4.76,2.07l-1.36-3.13c1.54-.95,3.3-1.72,5.27-2.31,1.97-.59,4.05-.88,6.22-.88s4.22.34,5.85,1.02c1.63.68,2.98,1.61,4.05,2.79,1.06,1.18,1.86,2.57,2.38,4.18.52,1.61.78,3.34.78,5.2v14.14c0,1.32.03,2.7.1,4.15.07,1.45.28,2.83.65,4.15h-3.94ZM128.18,443.43c-1.18-.23-2.43-.38-3.74-.48-1.32-.09-2.49-.14-3.54-.14-3.58,0-6.35.67-8.3,2.01-1.95,1.34-2.92,3.23-2.92,5.68,0,1.86.58,3.42,1.73,4.69,1.16,1.27,2.89,1.9,5.2,1.9,1,0,2.03-.12,3.09-.37,1.06-.25,2.1-.59,3.09-1.02,1-.43,1.95-.93,2.86-1.5.91-.57,1.74-1.14,2.52-1.73v-9.04Z"/>
    <path class="cls-1" d="M160.96,459.96c-.77.36-1.56.6-2.38.71-.82.11-1.56.17-2.24.17-1.72,0-3.24-.25-4.56-.75-1.32-.5-2.4-1.33-3.26-2.48-.86-1.16-1.51-2.67-1.94-4.56-.43-1.88-.65-4.18-.65-6.9v-17.54h-7.68v-3.4h7.68v-9.04l3.94-.34v9.38h9.66v3.4h-9.66v18.56c0,1.54.1,2.94.31,4.18.2,1.25.55,2.31,1.05,3.2.5.88,1.16,1.56,1.97,2.04.82.48,1.86.71,3.13.71s2.58-.2,3.81-.61l.82,3.26Z"/>
    <path class="cls-1" d="M223.18,460.16h-4.56l-5.85-15.03h-21.96l-5.78,15.03h-4.35l19.18-48.08h4.08l19.24,48.08ZM211.35,441.53l-9.59-24.68-9.52,24.68h19.11Z"/>
    <path class="cls-1" d="M248.34,460.16v-48.08h16.32c2.13,0,4.09.27,5.88.82,1.79.54,3.33,1.35,4.62,2.41,1.29,1.07,2.3,2.35,3.03,3.84.72,1.5,1.09,3.2,1.09,5.1,0,1.59-.24,2.97-.71,4.15-.48,1.18-1.08,2.21-1.8,3.09-.73.88-1.53,1.62-2.41,2.21-.88.59-1.76,1.09-2.62,1.5,1.27.36,2.49.88,3.67,1.56,1.18.68,2.22,1.53,3.13,2.55.91,1.02,1.63,2.21,2.18,3.57.54,1.36.82,2.92.82,4.69,0,2.04-.39,3.84-1.16,5.41-.77,1.56-1.83,2.88-3.16,3.94-1.34,1.07-2.9,1.87-4.69,2.41-1.79.54-3.73.82-5.81.82h-18.36ZM264.25,433.71c3.4,0,6.04-.8,7.92-2.41,1.88-1.61,2.82-3.82,2.82-6.63s-.98-4.99-2.92-6.53c-1.95-1.54-4.56-2.31-7.82-2.31h-11.7v17.88h11.7ZM266.63,456.42c3.13,0,5.68-.77,7.65-2.31,1.97-1.54,2.96-3.81,2.96-6.8,0-1.54-.27-2.91-.82-4.11-.54-1.2-1.29-2.23-2.24-3.09-.95-.86-2.07-1.52-3.37-1.97-1.29-.45-2.69-.68-4.18-.68h-14.08v18.97h14.08Z"/>
    <path class="cls-1" d="M293.96,460.16h-3.94v-34.82l3.47-.34.48,5.3c1.59-1.81,3.23-3.23,4.93-4.25,1.7-1.02,3.46-1.53,5.27-1.53.54,0,1.21.06,2.01.17.79.11,1.46.26,2.01.44l-.95,3.81c-1.18-.36-2.34-.54-3.47-.54-1.81,0-3.52.48-5.13,1.43-1.61.95-3.16,2.29-4.66,4.01v26.32Z"/>
    <path class="cls-1" d="M319.74,412.83c0,.91-.26,1.62-.78,2.14s-1.21.78-2.07.78-1.55-.26-2.07-.78c-.52-.52-.78-1.23-.78-2.14s.26-1.61.78-2.11c.52-.5,1.21-.75,2.07-.75s1.55.25,2.07.75c.52.5.78,1.2.78,2.11ZM318.85,460.16h-3.94v-34.82l3.94-.34v35.16Z"/>
    <path class="cls-1" d="M357.61,458.73c0,5.76-1.17,10.18-3.5,13.26-2.34,3.08-6.15,4.62-11.46,4.62-4.4,0-8.39-1.09-11.97-3.26l1.36-3.13c1.77.95,3.49,1.68,5.17,2.18,1.68.5,3.42.75,5.24.75,2.13,0,3.91-.32,5.34-.95,1.43-.64,2.58-1.56,3.47-2.79.88-1.22,1.51-2.72,1.87-4.49.36-1.77.54-3.79.54-6.05v-2.86c-1.63,1.27-3.46,2.35-5.47,3.23-2.02.88-4.14,1.33-6.36,1.33s-4.18-.48-5.88-1.43-3.13-2.23-4.28-3.84-2.04-3.47-2.65-5.58c-.61-2.11-.92-4.34-.92-6.7,0-2.49.34-4.86,1.02-7.11.68-2.24,1.68-4.2,2.99-5.88,1.31-1.68,2.91-3.01,4.79-4.01,1.88-1,4.05-1.5,6.49-1.5,2.04,0,3.94.35,5.71,1.05,1.77.7,3.31,1.55,4.62,2.55l.27-2.79,3.6-.34v33.73ZM353.67,431.74c-1.36-1.04-2.9-1.92-4.62-2.62-1.72-.7-3.47-1.05-5.24-1.05-2,0-3.72.41-5.17,1.22-1.45.82-2.66,1.93-3.64,3.33-.98,1.41-1.7,3.02-2.18,4.83-.48,1.81-.71,3.72-.71,5.71,0,1.86.21,3.63.65,5.3.43,1.68,1.08,3.15,1.94,4.42.86,1.27,1.96,2.28,3.3,3.03,1.34.75,2.89,1.12,4.66,1.12s3.68-.41,5.61-1.22c1.93-.82,3.73-1.88,5.41-3.2v-20.88Z"/>
    <path class="cls-1" d="M393.58,460.16c-.36-1.31-.58-2.7-.65-4.15-.07-1.45-.1-2.83-.1-4.15v-13.46c0-1.4-.13-2.73-.37-3.98-.25-1.25-.67-2.35-1.26-3.3-.59-.95-1.37-1.7-2.35-2.24-.98-.54-2.19-.82-3.64-.82-2,0-4.05.49-6.15,1.46-2.11.98-4.02,2.17-5.75,3.57v27.06h-3.94v-50.86l3.94-.34v20.67c1.86-1.4,3.86-2.61,6.02-3.6,2.15-1,4.39-1.5,6.7-1.5,1.9,0,3.52.35,4.86,1.05,1.34.7,2.45,1.66,3.33,2.86s1.53,2.63,1.94,4.28c.41,1.66.61,3.43.61,5.34v13.8c0,1.32.03,2.7.1,4.15.07,1.45.28,2.83.65,4.15h-3.94Z"/>
    <path class="cls-1" d="M425.88,459.96c-.77.36-1.56.6-2.38.71-.82.11-1.56.17-2.24.17-1.72,0-3.24-.25-4.56-.75-1.32-.5-2.4-1.33-3.26-2.48s-1.51-2.67-1.94-4.56c-.43-1.88-.65-4.18-.65-6.9v-17.54h-7.68v-3.4h7.68v-9.04l3.94-.34v9.38h9.66v3.4h-9.66v18.56c0,1.54.1,2.94.31,4.18.2,1.25.55,2.31,1.05,3.2.5.88,1.16,1.56,1.97,2.04.82.48,1.86.71,3.13.71s2.58-.2,3.81-.61l.82,3.26Z"/>
    <path class="cls-1" d="M455.94,460.16h-4.22v-48.08h4.22v48.08Z"/>
    <path class="cls-1" d="M492.59,460.16c-.18-.63-.31-1.28-.37-1.94s-.15-1.35-.24-2.07c-1.59,1.32-3.41,2.43-5.47,3.33-2.06.91-4.23,1.36-6.49,1.36s-4.18-.48-5.88-1.43-3.13-2.23-4.28-3.84c-1.16-1.61-2.04-3.48-2.65-5.61-.61-2.13-.92-4.4-.92-6.8,0-2.54.34-4.93,1.02-7.17.68-2.24,1.68-4.22,2.99-5.92,1.31-1.7,2.92-3.05,4.83-4.05,1.9-1,4.08-1.5,6.53-1.5,1.95,0,3.8.34,5.54,1.02,1.75.68,3.3,1.52,4.66,2.52v-18.77l3.94-.34v42.91c0,1.32.03,2.7.1,4.15.07,1.45.28,2.83.65,4.15h-3.94ZM491.84,431.74c-1.36-1.04-2.9-1.92-4.62-2.62-1.72-.7-3.47-1.05-5.24-1.05-2,0-3.72.42-5.17,1.26-1.45.84-2.66,1.95-3.64,3.33-.98,1.38-1.7,2.99-2.18,4.83-.48,1.84-.71,3.75-.71,5.75s.21,3.71.65,5.41c.43,1.7,1.08,3.2,1.94,4.49.86,1.29,1.96,2.31,3.3,3.06,1.34.75,2.89,1.12,4.66,1.12s3.68-.41,5.61-1.22c1.93-.82,3.73-1.88,5.41-3.2v-21.15Z"/>
    <path class="cls-1" d="M532.98,457.64c-1.68,1.04-3.46,1.84-5.34,2.38-1.88.54-3.89.82-6.02.82-2.63,0-4.98-.44-7.04-1.33-2.06-.88-3.8-2.12-5.2-3.71-1.41-1.59-2.48-3.51-3.23-5.78-.75-2.27-1.12-4.78-1.12-7.55,0-2.45.29-4.76.88-6.94.59-2.18,1.48-4.08,2.69-5.71,1.2-1.63,2.72-2.92,4.56-3.88,1.84-.95,4-1.43,6.49-1.43,2.22,0,4.2.4,5.95,1.19,1.75.79,3.22,1.88,4.42,3.26,1.2,1.38,2.11,3.04,2.72,4.96.61,1.93.92,4.02.92,6.29,0,.64-.02,1.27-.07,1.9-.05.63-.11,1.2-.2,1.7h-24.34c.23,4.22,1.43,7.51,3.6,9.89s5.21,3.57,9.11,3.57c1.72,0,3.4-.25,5.03-.75,1.63-.5,3.24-1.2,4.83-2.11l1.36,3.2ZM529.78,440.58c-.04-3.85-.91-6.9-2.58-9.15-1.68-2.24-4.17-3.37-7.48-3.37-1.77,0-3.3.33-4.59.99s-2.38,1.55-3.26,2.69c-.88,1.13-1.55,2.46-2.01,3.98s-.75,3.14-.88,4.86h20.81Z"/>
    <path class="cls-1" d="M562.9,460.16c-.18-.68-.32-1.43-.41-2.24-.09-.82-.16-1.59-.2-2.31-.68.59-1.49,1.19-2.41,1.8-.93.61-1.93,1.16-2.99,1.63-1.07.48-2.19.86-3.37,1.16s-2.36.44-3.54.44c-1.45,0-2.8-.24-4.05-.71-1.25-.48-2.32-1.14-3.23-2.01-.91-.86-1.62-1.91-2.14-3.16-.52-1.25-.78-2.66-.78-4.25,0-2,.41-3.68,1.22-5.07s1.89-2.5,3.23-3.37c1.34-.86,2.88-1.48,4.62-1.87,1.75-.38,3.57-.58,5.47-.58,1.63,0,3.06.08,4.28.24,1.22.16,2.42.35,3.6.58v-2.24c0-3.08-.77-5.55-2.31-7.41-1.54-1.86-3.94-2.79-7.21-2.79-1.68,0-3.36.26-5.03.78-1.68.52-3.26,1.21-4.76,2.07l-1.36-3.13c1.54-.95,3.3-1.72,5.27-2.31,1.97-.59,4.05-.88,6.22-.88s4.22.34,5.85,1.02c1.63.68,2.98,1.61,4.05,2.79,1.06,1.18,1.86,2.57,2.38,4.18.52,1.61.78,3.34.78,5.2v14.14c0,1.32.03,2.7.1,4.15.07,1.45.28,2.83.65,4.15h-3.94ZM562.22,443.43c-1.18-.23-2.43-.38-3.74-.48-1.32-.09-2.49-.14-3.54-.14-3.58,0-6.35.67-8.3,2.01-1.95,1.34-2.92,3.23-2.92,5.68,0,1.86.58,3.42,1.73,4.69,1.16,1.27,2.89,1.9,5.2,1.9,1,0,2.03-.12,3.09-.37,1.06-.25,2.1-.59,3.09-1.02,1-.43,1.95-.93,2.86-1.5.91-.57,1.74-1.14,2.52-1.73v-9.04Z"/>
    <path class="cls-1" d="M599.35,460.02c-.54.54-1.29.82-2.24.82s-1.7-.28-2.24-.85-.82-1.3-.82-2.21.27-1.64.82-2.21c.54-.57,1.29-.85,2.24-.85s1.7.28,2.24.85c.54.57.82,1.3.82,2.21s-.27,1.66-.82,2.24ZM599.08,445.61h-3.94v-33.73l3.94-.34v34.07Z"/>
    <path class="cls-1" d="M615.94,460.02c-.54.54-1.29.82-2.24.82s-1.7-.28-2.24-.85-.82-1.3-.82-2.21.27-1.64.82-2.21c.54-.57,1.29-.85,2.24-.85s1.7.28,2.24.85c.54.57.82,1.3.82,2.21s-.27,1.66-.82,2.24ZM615.67,445.61h-3.94v-33.73l3.94-.34v34.07Z"/>
    <g>
      <g>
        <path class="cls-1" d="M195.29,108.11c-12.09-41.29-36.94-67.01-61.52-82.94C107.74,8.31,77.08,0,46.07,0H0v108.11h44.62c26.15,0,47.35,21.2,47.35,47.35l27.4-47.35h75.92Z"/>
        <path class="cls-1" d="M90.27,216.66v92.48h110.41v-154.62l.34.59c0-26.15,21.2-47.35,47.35-47.35l-47.7-1.76v-15.55h-56.88l-53.53,126.22"/>
        <path class="cls-4" d="M245.94,0c-31.02,0-61.67,8.31-87.7,25.17-24.58,15.93-49.43,41.65-61.52,82.94-4.95,9.1-6.45,43.37-6.45,43.37v74.46c22.26-101.75,148.39-117.83,148.39-117.83h53.35V0h-46.07Z"/>
      </g>
      <text class="cls-2" transform="translate(582.12 220.28) scale(1.07 1)"><tspan x="0" y="0">®</tspan></text>
      <g>
        <text class="cls-3" transform="translate(523.71 353.95)"><tspan x="0" y="0">LIGHTS</tspan></text>
        <text class="cls-3" transform="translate(458.59 353.95)"><tspan x="0" y="0">LED</tspan></text>
      </g>
      <g>
        <path class="cls-1" d="M311.81,180.24h-31.02v25.92h-14.27v29.01h14.27v32.66h0c0,23.27,18.87,42.14,42.14,42.14h8.63s14.94,0,14.94,0v-28.11h-19.22c-8.54,0-15.47-6.92-15.47-15.47v-31.22h22.02c7.1,0,12.86-5.76,12.86-12.86v-16.15h-34.89v-25.92Z"/>
        <path class="cls-1" d="M485.45,262.85h.03v3.38c0,8.66-7.02,15.67-15.67,15.67s-15.67-7.02-15.67-15.67l.03-3.38h0v-43.9c0-7.09-5.75-12.84-12.84-12.84h-18.73v56.74c0,26.07,21.14,47.21,47.21,47.21s47.21-21.14,47.21-47.21v-56.74h-31.57v56.74Z"/>
        <path class="cls-1" d="M415.76,206.16h-22.39c-23.1,0-41.82,18.72-41.82,41.82v61.99h31.31v-58.47c0-8.47,6.25-15.44,14.26-16.25l18.46.02c1.09,0,1.97-.88,1.98-1.97l.05-25.31c0-1.01-.82-1.84-1.83-1.84Z"/>
        <path class="cls-1" d="M600.14,267.83h21.19c.54-3.06.84-6.21.84-9.44,0-28.88-22.68-52.29-50.65-52.29s-50.65,23.41-50.65,52.29,22.68,52.29,50.65,52.29c16.36,0,30.89-8.01,40.15-20.43l-21.62-15.04c-4.38,5.46-10.69,8.88-17.71,8.88-9.8,0-18.23-6.69-21.93-16.26h49.73ZM550.29,246.27c3.65-9.73,12.15-16.56,22.05-16.56s18.4,6.83,22.05,16.56h-44.1Z"/>
      </g>
    </g>
  </g>
</svg>